<svg xmlns="http://www.w3.org/2000/svg" width="39" height="39" fill="none"><rect width="38.114" height="38.114" fill="#231815" rx="19.057" transform="translate(.443 .443)"/><path fill="#FFF" d="M19.05 28.14c-5.01 0-9.08-4.08-9.08-9.09s4.07-9.08 9.08-9.08 9.09 4.07 9.09 9.08-4.08 9.09-9.09 9.09Zm0-16.84c-4.28 0-7.75 3.48-7.75 7.75s3.47 7.76 7.75 7.76c4.28 0 7.76-3.49 7.76-7.76s-3.48-7.75-7.76-7.75Z"/><path fill="#FFF" d="M28.36 29.02c-.17 0-.34-.06-.47-.19l-1.77-1.77a.664.664 0 1 1 .94-.94l1.77 1.77c.26.26.26.68 0 .94-.13.13-.3.19-.47.19Z"/></svg>