<svg xmlns="http://www.w3.org/2000/svg" width="217" height="56.384" fill="none"><path fill="#231815" d="M48.03 56.38H8.35C3.72 56.38 0 52.66 0 48.03V8.35C0 3.72 3.72 0 8.35 0h39.68c4.63 0 8.35 3.72 8.35 8.35v39.68c0 4.63-3.81 8.35-8.35 8.35Z"/><path fill="#FFF" d="M27.78 18.24s5.54-3.35 8.9-5.26c3.36-1.91 5.26-2.54 7.17-2.73 1.91-.09 4.08.91 4.08.91l-6.08-3.81s-.82-.55-3.09-.27c-2.27.27-3.45.91-4.9 1.63-1.45.82-11.17 6.54-11.17 6.54l5.09 2.99ZM42.31 15.7s2.81 3.91.63 10.81-7.26 10.8-7.63 11.07c-.27.28-3.45 2.09-3.45 2.09l.09 5.45s10.17-3.54 14.44-13.35c3.81-8.62 1.36-13.25-.54-15.25-1.09-1.18-3.54-.82-3.54-.82ZM27.78 45.03l-5.09-3V15.34l5.09 2.9v26.79ZM12.25 37.22l-5.08-3.09V7.53l4.99 2.82.09 26.87Z"/><path fill="#FFF" d="M7.17 34.13s-1.27 11.26 7.9 15.35c5.26 2.36 9.17 1 10.98-.82 1.46-1.45 1.64-3.63 1.64-3.63l-5.09-3.09s0 1.09-.81 1.91c-.91 1-2.36 2-5.63.36-4.18-2.18-4-6.99-4-6.99l-4.99-3.09ZM12.16 10.35l4.09-2.09-4.63-2.54-4.45 1.81 4.99 2.82Z"/><path fill="#231815" d="M211.91 43.49h2v.45h-.82v2.09h-.45v-2.09h-.82l.09-.45ZM214.27 43.49h.55l.81 1.63.82-1.63h.55v2.54h-.46v-1.82l-.82 1.55h-.27l-.82-1.55v1.82h-.36v-2.54ZM209.19 43.67v2.54h-11.08c-2.72 0-2.72 0-2.72 2.63 0 3.91 0 3.91 3.81 3.91 2 0 3.99-.09 5.9 0 1.45.09 1.91-.46 1.73-1.82-.09-.82 0-1.72 0-2.72h2.81c0 1.54.09 2.99 0 4.54-.09 1.54-1.09 2.45-2.54 2.54-4 .09-7.9.09-11.9 0-1.81 0-2.72-1.18-2.72-3v-5.54c0-1.99.91-2.99 2.82-3.08 4.63-.09 9.17 0 13.89 0ZM68.45 24.42h2.82v8.72c0 .18.18.36.36.36h10.99c.18 0 .36-.18.36-.36v-8.72h2.91c0 3.18.09 6.26 0 9.35 0 1.45-1 2.36-2.36 2.36-4.36.09-8.27.09-12.71 0-1.46 0-2.37-1-2.37-2.54-.09-3 0-6.08 0-9.17ZM131.83 43.67h2.81v8.53c0 .18.19.37.37.37h12.71v2.63H135.1c-2.54 0-3.36-1-3.36-3.27.09-2.45.09-5.54.09-8.26ZM168.42 43.76h2.63v11.53h-2.63V43.76ZM125.75 30.05s.45-.73.45-1.09c.55-2.18-.27-4.45-2.45-4.54-4.9-.18-9.81-.09-14.89-.09v11.71h13.71c3.54 0 4.08-2.63 3.54-5.08 0-.28-.36-.91-.36-.91Zm-3 3.36-10.8.09v-2.18h10.8c.18 0 .36.18.36.36v1.36c0 .19-.18.37-.36.37Zm0-4.27-10.8.09v-2.18h10.8c.18 0 .36.18.36.37v1.36c0 .18-.18.36-.36.36ZM141.55 26.6c-.91-1.82-2.27-2.18-4.09-2.18-1.91 0-3.18.36-4.09 2.18 0 0-3.45 6.17-5.44 9.53h3.54l4.9-8.9c.09-.09.18-.18.36-.18h1.64c.09 0 .27.09.36.18l4.9 8.9h3.54c-2.17-3.36-5.72-9.53-5.62-9.53ZM165.7 24.42h-3v9.08s-.45.09-1.09-.46c-1.54-1.45-4.99-5.62-5.45-6.08 0 0 0-.09-.09-.09-.27-.36-.54-.64-.63-.73-1.09-1.09-1.73-1.63-3.73-1.81h-2.63v11.71h3v-9.08s.45-.09 1.09.46c1.54 1.45 4.99 5.62 5.44 6.08 0 0 0 .09.1.09.27.36.54.63.63.73 1.09 1.09 1.73 1.63 3.72 1.81h2.64V24.42ZM85.8 45.94c0-1.36-1-2.18-2.55-2.18H68.18v11.53h15.07c1.46 0 2.46-.91 2.55-2.18v-7.17Zm-2.82 1.54v4.9c0 .19-.18.37-.36.37H71.36c-.18 0-.36-.18-.36-.37v-5.63c0-.18.18-.36.36-.36H82.8c.18 0 .18.18.18.36v.73ZM190.12 43.67h-3v9.08s-.45.09-1.09-.46c-1.54-1.45-4.99-5.63-5.44-6.08l-.09-.09c-.28-.36-.55-.64-.64-.73-1.09-1.09-1.72-1.63-3.72-1.81h-2.64v11.71h3v-9.08s.46-.09 1.09.45c1.54 1.46 4.99 5.63 5.45 6.09l.09.09c.27.36.54.63.63.72 1.09 1.09 1.73 1.64 3.73 1.82h2.63V43.67ZM108.04 43.67c-.45 2.45-1.18 5.63-1.72 8.08-.09.54-.28.91-.73.91-.54 0-.54-.37-.82-.91 0 0-1.81-4.81-2.72-6.9-.36-.82-.91-1.18-1.73-1.18h-2.18c-.81 0-1.36.36-1.72 1.18-.91 2.09-2.72 6.9-2.72 6.9-.19.54-.28.91-.82.91-.46 0-.64-.37-.73-.91-.54-2.54-1.18-5.63-1.72-8.08h-3.09c.73 3.18 1.45 6.17 2.09 9.08.27 1.27.63 2.54 2.27 2.45h2.45c.91 0 1.36-.64 1.82-1.91l2.63-6.99c.27-.73.36-.82.54-.82.19 0 .37.09.55.82l2.63 6.99c.46 1.27.91 1.91 1.82 1.91h2.45c1.63 0 2-1.18 2.27-2.45.63-2.91 1.36-6 2.09-9.08h-2.91ZM128.38 48.48H115.4c-.28 0-.46-.18-.46-.36v-1.37c0-.18.18-.36.46-.36H129.02v-2.63c-5 0-9.9-.09-14.9.09-2.08.09-2.63 2-2.63 4.36v2.27c0 2.45.18 4.99 3.72 4.99h13.71v-2.63h-13.61c-.28 0-.46-.18-.46-.37v-1.54c0-.18.18-.36.46-.36h13.61v-2.09h-.54ZM149.81 43.67h2.81v8.53c0 .18.18.37.37.37h12.71v2.63h-12.62c-2.55 0-3.36-1-3.36-3.27.09-2.45.09-5.54.09-8.26ZM101.32 31.59h1.36c2.46-.09 2.73-1.36 2.73-3.54 0-2-.55-3.45-2.82-3.54H87.98v11.71h2.72v-4.54h6.63l4.9 4.54h3.81c0-.09-4.72-4.63-4.72-4.63Zm-10.53-2.45v-2.18h10.9c.18 0 .36.18.36.36v1.37c0 .18-.18.36-.36.36l-10.9.09Z"/></svg>