<svg xmlns="http://www.w3.org/2000/svg" width="49" height="29" fill="none"><path fill="gray" d="M48.762 14.5c0 7.956-6.47 14.5-14.5 14.5-7.956 0-14.5-6.544-14.5-14.5S26.232 0 34.188 0c8.105 0 14.574 6.544 14.574 14.5Z"/><path fill="#686868" d="M29.354 14.574c0-1.04-.148-2.082-.297-3.048h-8.923c.074-.52.223-.967.372-1.562h7.956c-.149-.52-.372-1.04-.595-1.561H21.1c.223-.521.52-.967.818-1.562h5.131c-.297-.52-.67-1.041-1.115-1.562h-2.826c.446-.52.892-.966 1.487-1.487C22.067 1.412 18.647 0 14.855 0 6.971.223.428 6.544.428 14.5S6.898 29 14.929 29c3.792 0 7.138-1.487 9.74-3.792.521-.446.967-.967 1.488-1.562h-2.975a10.626 10.626 0 0 1-1.04-1.487h5.056c.297-.446.595-.967.818-1.562h-6.767a7.601 7.601 0 0 1-.595-1.561h7.957c.446-1.339.743-2.826.743-4.462Z"/><path fill="#fff" d="m20.062 18.218.223-1.339c-.075 0-.223.075-.372.075-.52 0-.595-.298-.52-.446l.446-2.677h.818l.223-1.487h-.744l.149-.893h-1.562s-.892 5.057-.892 5.651c0 .893.52 1.339 1.264 1.339.446 0 .818-.149.967-.223ZM20.582 15.764c0 2.157 1.487 2.677 2.677 2.677 1.115 0 1.636-.223 1.636-.223l.297-1.487s-.818.372-1.636.372c-1.71 0-1.413-1.264-1.413-1.264h3.123s.224-.967.224-1.413c0-.967-.52-2.231-2.231-2.231-1.487-.074-2.677 1.636-2.677 3.57Zm2.677-2.23c.818 0 .67.966.67 1.04h-1.711c.074-.074.223-1.04 1.04-1.04ZM32.998 18.218l.297-1.71s-.743.372-1.338.372c-1.04 0-1.562-.818-1.562-1.785 0-1.859.893-2.826 2.008-2.826.744 0 1.413.447 1.413.447l.223-1.636s-.892-.372-1.785-.372c-1.784 0-3.494 1.561-3.494 4.461 0 1.934.892 3.198 2.75 3.198.67.074 1.488-.149 1.488-.149ZM11.658 12.12c-1.041 0-1.86.298-1.86.298l-.222 1.338s.669-.297 1.71-.297c.52 0 .967.074.967.52 0 .298-.075.372-.075.372h-.669c-1.338 0-2.751.52-2.751 2.305 0 1.413.892 1.71 1.487 1.71 1.04 0 1.561-.669 1.636-.669l-.075.595h1.264l.595-4.239c0-1.859-1.487-1.933-2.007-1.933Zm.297 3.42c0 .224-.149 1.488-1.04 1.488-.447 0-.596-.372-.596-.595 0-.372.223-.892 1.413-.892h.223ZM15.153 18.366c.372 0 2.305.075 2.305-2.007 0-1.934-1.859-1.562-1.859-2.305 0-.372.297-.52.818-.52.223 0 1.04.073 1.04.073l.224-1.412s-.52-.15-1.487-.15c-1.116 0-2.305.447-2.305 2.009 0 1.784 1.933 1.636 1.933 2.305 0 .446-.52.52-.892.52-.67 0-1.413-.223-1.413-.223l-.223 1.413c.149.149.595.297 1.859.297ZM45.785 10.93l-.297 2.083s-.595-.744-1.487-.744c-1.413 0-2.603 1.71-2.603 3.718 0 1.264.595 2.528 1.934 2.528.892 0 1.487-.595 1.487-.595l-.075.52h1.562l1.115-7.36-1.636-.15Zm-.743 4.016c0 .818-.372 1.933-1.264 1.933-.52 0-.818-.446-.818-1.264 0-1.264.52-2.007 1.264-2.007.52.074.818.446.818 1.338ZM3.254 18.292l.892-5.502.149 5.502h1.04l2.008-5.502-.818 5.502h1.636l1.264-7.361H6.897l-1.561 4.536-.075-4.536h-2.23l-1.265 7.361h1.488Z"/><path fill="#fff" d="M27.05 18.293c.446-2.529.52-4.61 1.636-4.239.149-.966.372-1.413.52-1.784h-.297c-.67 0-1.264.892-1.264.892l.149-.818h-1.488l-.966 5.949h1.71ZM36.569 12.12a6.021 6.021 0 0 0-1.86.298l-.222 1.338s.669-.297 1.71-.297c.52 0 .967.074.967.52 0 .298-.075.372-.075.372h-.669c-1.338 0-2.751.52-2.751 2.305 0 1.413.892 1.71 1.487 1.71 1.041 0 1.562-.669 1.636-.669l-.075.595h1.413l.595-4.239c0-1.859-1.636-1.933-2.156-1.933Zm.372 3.42c0 .224-.15 1.488-1.041 1.488-.447 0-.595-.372-.595-.595 0-.372.223-.892 1.413-.892h.223ZM39.916 18.293c.446-2.529.52-4.61 1.635-4.239.15-.966.372-1.413.52-1.784h-.297c-.669 0-1.264.892-1.264.892l.149-.818h-1.487l-.967 5.949h1.71Z"/></svg>