<svg xmlns="http://www.w3.org/2000/svg" width="46" height="13" fill="none"><defs><clipPath id="a"><rect width="45" height="12" fill="#fff" fill-opacity="0" rx="0" transform="translate(.5 .5)"/></clipPath></defs><rect width="45" height="12" fill="none" rx="0" transform="translate(.5 .5)"/><g clip-path="url(#a)"><path fill="#FFF" d="M16.42 12.98h-4.1V5.36h-.27l-2.28 7.62H6.66C5.9 10.44 5.14 7.9 4.38 5.35h-.27c-.01.63 0 1.27 0 1.9V12.94c-.16.06-3.87.08-4.11.02V.02C.08.01.17 0 .25 0h4.33c.81.03 1.33.48 1.64 1.22.14.33.24.69.34 1.04L8 7.45c.02.07.05.13.07.21h.29c.02-.08.05-.16.07-.24.55-1.92 1.09-3.85 1.63-5.77.12-.43.31-.81.63-1.12.31-.31.69-.48 1.11-.51.26-.02.52-.02.78-.02h3.82c.05.18.06 12.74.02 12.98ZM31.11 12.98h-4.17V5.36h-.33c-.03.06-.07.13-.1.2-.87 1.99-1.73 3.99-2.6 5.99-.33.76-.87 1.23-1.66 1.41-.08.02-.16.03-.24.03h-3.64c-.06 0-.13-.01-.21-.01V.05c.14-.06 3.82-.08 4.18-.02 0 .08.01.18.01.27v7.34h.31c.03-.06.07-.14.1-.21.88-1.98 1.76-3.97 2.64-5.95.25-.57.6-1.03 1.16-1.3.25-.12.5-.18.77-.18 1.18.01 2.36 0 3.54 0h.23c.05.18.06 12.74.01 12.98Z"/><path fill="gray" fill-rule="evenodd" d="M45.9 5.36c-.08.01-.16.01-.23.01-2.47 0-4.94.01-7.41 0-.52-.01-1.05 0-1.56-.14-.79-.21-1.48-.6-2.09-1.15a6.18 6.18 0 0 1-1.76-2.74A5.07 5.07 0 0 1 32.6.03c.08-.01.16-.01.23-.01 1.84 0 3.68 0 5.52-.01h3.08c.79 0 1.55.16 2.26.56 1.25.7 1.99 1.79 2.24 3.24.09.48.09.96 0 1.45 0 .02-.01.05-.03.1Z"/><path fill="#FFF" d="M45.62 6.2c-.11.36-.28.67-.49.96-.69.96-1.63 1.53-2.74 1.81-.41.11-.83.15-1.26.15-1.36-.01-2.72 0-4.08 0h-.26v3.82c-.16.06-3.76.07-4 .02V6.22c.01-.01.01-.02.02-.02 0-.01.01-.01.01-.01a.31.31 0 0 1 .08-.02c4.22 0 8.43 0 12.64.01.02 0 .04.01.09.02h-.01Z"/></g></svg>