<svg xmlns="http://www.w3.org/2000/svg" width="45" height="14" fill="none"><defs><clipPath id="a"><rect width="44" height="13" fill="#fff" fill-opacity="0" rx="0" transform="translate(.5 .5)"/></clipPath></defs><rect width="44" height="13" fill="none" rx="0" transform="translate(.5 .5)"/><g clip-path="url(#a)"><path fill="#FFF" d="M44.99 13.72v.08h-3.37c-.15-.68-.29-1.35-.43-2.02H36.5c-.25.67-.51 1.35-.76 2.01h-3.82c.02-.05.04-.09.06-.13 1.42-3.27 2.84-6.54 4.27-9.81.37-.86.74-1.71 1.12-2.57.15-.33.37-.61.71-.79.33-.19.69-.25 1.07-.25h2.81c.03 0 .06.01.1.01.31 1.45.62 2.89.94 4.33.32 1.49.64 2.99.97 4.48.29 1.36.59 2.73.88 4.09.05.19.1.38.14.57Zm-7.43-4.73h3.02c-.36-1.69-.72-3.37-1.08-5.07-.65 1.7-1.29 3.38-1.94 5.07ZM30.02 0c.14.01.27.03.4.05.76.07 1.5.24 2.22.5.02 0 .04.01.07.03-.16.96-.33 1.94-.49 2.91-.26-.1-.51-.21-.76-.3-.92-.32-1.86-.42-2.82-.32-.41.04-.8.15-1.14.4-.19.14-.34.32-.4.55-.08.3.01.55.23.76.18.18.39.35.62.48.46.26.94.5 1.42.73.68.34 1.32.73 1.86 1.27.5.51.83 1.11.92 1.81.11.78-.02 1.53-.35 2.25-.45.96-1.21 1.64-2.18 2.11-.69.34-1.42.55-2.18.65-.38.05-.77.08-1.16.12h-.79c-1.05-.05-2.09-.19-3.09-.5-.21-.06-.41-.14-.62-.21l.51-3.05c.24.11.47.21.7.31.64.27 1.29.48 1.99.56.66.07 1.32.12 1.98-.01.31-.07.6-.17.86-.33.37-.25.59-.58.55-1.03a.973.973 0 0 0-.26-.56c-.21-.24-.48-.42-.76-.57-.44-.24-.89-.45-1.34-.69-.68-.35-1.32-.75-1.84-1.31-.68-.72-.97-1.56-.85-2.54.14-1.2.75-2.14 1.75-2.85.78-.56 1.66-.89 2.6-1.06.35-.06.71-.09 1.06-.14.02 0 .04-.02.06-.02h1.23Z"/><path fill="gray" fill-rule="evenodd" d="M0 .45C.02.39.04.32.06.24H5.83c.27 0 .55.03.81.11.52.17.81.52.92 1.02.14.64.27 1.27.4 1.91.18.89.36 1.78.55 2.68.09.47.19.94.29 1.41.01.04 0 .08.01.12-.02-.03-.04-.07-.06-.1-.26-.67-.61-1.29-1.01-1.88-.88-1.27-1.99-2.3-3.3-3.14-.2-.12-.4-.23-.6-.35-.23-.12-.45-.25-.67-.36-.98-.48-2-.84-3.05-1.11C.08.54.04.54 0 .54V.45Z"/><path fill="#FFF" d="M3.84 2.02c.2.12.4.23.6.35 1.31.84 2.43 1.87 3.3 3.14.4.59.74 1.22 1.01 1.88.02.03.04.07.06.1l.33 1.55c.03.14.06.27.1.44 1.19-3.09 2.38-6.16 3.56-9.23h3.86c-.07.16-.14.32-.21.49-1.82 4.29-3.63 8.59-5.45 12.89-.08.19-.04.15-.24.15-1.17.01-2.35.01-3.52.01h-.16c-.07-.26-.15-.51-.22-.76C5.93 9.64 5 6.25 4.06 2.86c-.07-.28-.15-.56-.22-.84ZM19.5 13.8h-3.65L18.13.25h3.65c-.76 4.51-1.52 9.03-2.28 13.55Z"/></g></svg>