<svg xmlns="http://www.w3.org/2000/svg" width="239" height="63" fill="none"><path fill="#fff" d="M52.9 62.1H9.2C4.1 62.1 0 58 0 52.9V9.2C0 4.1 4.1 0 9.2 0h43.7c5.1 0 9.2 4.1 9.2 9.2v43.7c0 5.1-4.2 9.2-9.2 9.2Z"/><path fill="#231815" d="M30.6 20.1s6.1-3.7 9.8-5.8c3.7-2.1 5.8-2.8 7.9-3 2.1-.1 4.5 1 4.5 1l-6.7-4.2s-.9-.6-3.4-.3-3.8 1-5.4 1.8c-1.6.9-12.3 7.2-12.3 7.2l5.6 3.3ZM46.6 17.3s3.1 4.3.7 11.9c-2.4 7.6-8 11.9-8.4 12.2-.3.3-3.8 2.3-3.8 2.3l.1 6S46.4 45.8 51.1 35c4.2-9.5 1.5-14.6-.6-16.8-1.2-1.3-3.9-.9-3.9-.9Z"/><path fill="#231815" d="M30.6 49.6 25 46.3V16.9l5.6 3.2v29.5ZM13.5 41l-5.6-3.4V8.3l5.5 3.1.1 29.6Z"/><path fill="#231815" d="M7.9 37.6S6.5 50 16.6 54.5c5.8 2.6 10.1 1.1 12.1-.9 1.6-1.6 1.8-4 1.8-4l-5.6-3.4s0 1.2-.9 2.1c-1 1.1-2.6 2.2-6.2.4-4.6-2.4-4.4-7.7-4.4-7.7l-5.5-3.4ZM13.4 11.4l4.5-2.3-5.1-2.8-4.9 2 5.5 3.1Z"/><path fill="#fff" d="M233.4 47.9h2.2v.5h-.9v2.3h-.5v-2.3h-.9l.1-.5ZM236 47.9h.6l.9 1.8.9-1.8h.6v2.8h-.5v-2l-.9 1.7h-.3l-.9-1.7v2h-.4v-2.8ZM230.4 48.1v2.8h-12.2c-3 0-3 0-3 2.9 0 4.3 0 4.3 4.2 4.3 2.2 0 4.4-.1 6.5 0 1.6.1 2.1-.5 1.9-2-.1-.9 0-1.9 0-3h3.1c0 1.7.1 3.3 0 5-.1 1.7-1.2 2.7-2.8 2.8-4.4.1-8.7.1-13.1 0-2 0-3-1.3-3-3.3v-6.1c0-2.2 1-3.3 3.1-3.4 5.1-.1 10.1 0 15.3 0ZM75.4 26.9h3.1v9.6c0 .2.2.4.4.4H91c.2 0 .4-.2.4-.4v-9.6h3.2c0 3.5.1 6.9 0 10.3 0 1.6-1.1 2.6-2.6 2.6-4.8.1-9.1.1-14 0-1.6 0-2.6-1.1-2.6-2.8-.1-3.3 0-6.7 0-10.1ZM145.2 48.1h3.1v9.4c0 .2.2.4.4.4h14v2.9h-13.9c-2.8 0-3.7-1.1-3.7-3.6.1-2.7.1-6.1.1-9.1ZM185.5 48.2h2.9v12.7h-2.9V48.2ZM138.5 33.1s.5-.8.5-1.2c.6-2.4-.3-4.9-2.7-5-5.4-.2-10.8-.1-16.4-.1v12.9H135c3.9 0 4.5-2.9 3.9-5.6 0-.3-.4-1-.4-1Zm-3.3 3.7-11.9.1v-2.4h11.9c.2 0 .4.2.4.4v1.5c0 .2-.2.4-.4.4Zm0-4.7-11.9.1v-2.4h11.9c.2 0 .4.2.4.4v1.5c0 .2-.2.4-.4.4ZM155.9 29.3c-1-2-2.5-2.4-4.5-2.4-2.1 0-3.5.4-4.5 2.4 0 0-3.8 6.8-6 10.5h3.9l5.4-9.8c.1-.1.2-.2.4-.2h1.8c.1 0 .3.1.4.2l5.4 9.8h3.9c-2.4-3.7-6.3-10.5-6.2-10.5ZM182.5 26.9h-3.3v10s-.5.1-1.2-.5c-1.7-1.6-5.5-6.2-6-6.7 0 0 0-.1-.1-.1-.3-.4-.6-.7-.7-.8-1.2-1.2-1.9-1.8-4.1-2h-2.9v12.9h3.3v-10s.5-.1 1.2.5c1.7 1.6 5.5 6.2 6 6.7 0 0 0 .1.1.1.3.4.6.7.7.8 1.2 1.2 1.9 1.8 4.1 2h2.9V26.9ZM94.5 50.6c0-1.5-1.1-2.4-2.8-2.4H75.1v12.7h16.6c1.6 0 2.7-1 2.8-2.4v-7.9Zm-3.1 1.7v5.4c0 .2-.2.4-.4.4H78.6c-.2 0-.4-.2-.4-.4v-6.2c0-.2.2-.4.4-.4h12.6c.2 0 .2.2.2.4v.8ZM209.4 48.1h-3.3v10s-.5.1-1.2-.5c-1.7-1.6-5.5-6.2-6-6.7l-.1-.1c-.3-.4-.6-.7-.7-.8-1.2-1.2-1.9-1.8-4.1-2h-2.9v12.9h3.3v-10s.5-.1 1.2.5c1.7 1.6 5.5 6.2 6 6.7l.1.1c.3.4.6.7.7.8 1.2 1.2 1.9 1.8 4.1 2h2.9V48.1ZM119 48.1c-.5 2.7-1.3 6.2-1.9 8.9-.1.6-.3 1-.8 1-.6 0-.6-.4-.9-1 0 0-2-5.3-3-7.6-.4-.9-1-1.3-1.9-1.3H108.1c-.9 0-1.5.4-1.9 1.3-1 2.3-3 7.6-3 7.6-.2.6-.3 1-.9 1-.5 0-.7-.4-.8-1-.6-2.8-1.3-6.2-1.9-8.9h-3.4c.8 3.5 1.6 6.8 2.3 10 .3 1.4.7 2.8 2.5 2.7h2.7c1 0 1.5-.7 2-2.1l2.9-7.7c.3-.8.4-.9.6-.9.2 0 .4.1.6.9l2.9 7.7c.5 1.4 1 2.1 2 2.1h2.7c1.8 0 2.2-1.3 2.5-2.7.7-3.2 1.5-6.6 2.3-10H119ZM141.4 53.4h-14.3c-.3 0-.5-.2-.5-.4v-1.5c0-.2.2-.4.5-.4h15v-2.9c-5.5 0-10.9-.1-16.4.1-2.3.1-2.9 2.2-2.9 4.8v2.5c0 2.7.2 5.5 4.1 5.5H142v-2.9h-15c-.3 0-.5-.2-.5-.4v-1.7c0-.2.2-.4.5-.4h15v-2.3h-.6ZM165 48.1h3.1v9.4c0 .2.2.4.4.4h14v2.9h-13.9c-2.8 0-3.7-1.1-3.7-3.6.1-2.7.1-6.1.1-9.1ZM111.6 34.8h1.5c2.7-.1 3-1.5 3-3.9 0-2.2-.6-3.8-3.1-3.9H96.9v12.9h3v-5h7.3l5.4 5h4.2c0-.1-5.2-5.1-5.2-5.1ZM100 32.1v-2.4h12c.2 0 .4.2.4.4v1.5c0 .2-.2.4-.4.4l-12 .1Z"/></svg>